<svg width="291" height="291" viewBox="0 0 291 291" fill="none" xmlns="http://www.w3.org/2000/svg">
<path fill-rule="evenodd" clip-rule="evenodd" d="M291 0H0V291H290.525C290.373 290.567 290.169 289.992 289.824 289.129C288.223 285.055 286.646 282.436 281.094 273.642C279.267 270.751 278.017 268.786 277.135 267.399C275.228 264.401 275.038 264.102 274.453 262.991C270.763 255.961 269.914 251.928 269.716 250.892C269.016 247.84 268.782 244.701 269.023 241.58C269.4 238.507 269.608 235.416 269.646 232.32C269.652 229.992 269.535 228.968 268.761 228.246C267.916 227.458 266.785 227.53 264.445 227.677C263.916 227.711 263.325 227.748 262.662 227.78C261.498 227.835 260.332 227.83 259.165 227.824C258.348 227.82 257.531 227.816 256.714 227.833C253.624 227.902 251.231 227.743 246.51 227.429L246.372 227.42C244.377 227.285 243.543 227.199 241.332 226.971C239.723 226.805 237.385 226.564 233.341 226.174C231.668 226.013 230.379 225.892 229.367 225.797C226.163 225.496 225.727 225.455 224.657 225.243C223.522 225.028 220.065 224.3 213.279 221.314C206.95 218.543 200.89 215.196 195.173 211.316L195.121 211.28C190.855 208.347 188.707 206.871 185.861 204.419C184.866 203.563 183.957 202.736 183.108 201.965C179.756 198.92 177.344 196.729 174.303 196.905C172.78 197.035 171.288 197.403 169.879 197.994C168.954 198.404 168.406 198.78 167.865 199.152C167.477 199.418 167.092 199.683 166.574 199.955C165.596 200.496 163.96 201.148 160.468 201.119C157.013 201.091 153.967 200.408 150.747 199.686C147.899 199.047 144.914 198.377 141.39 198.104C136.581 197.806 131.753 198.101 127.015 198.983C124.99 199.311 123.448 199.654 121.942 199.989C120.53 200.303 119.149 200.611 117.43 200.892C116.778 200.997 116.142 201.194 115.505 201.391C114.629 201.662 113.754 201.933 112.843 201.963C112.328 201.938 111.822 202.111 111.429 202.446C111.168 202.712 111.122 202.977 111.054 203.373C111.027 203.533 110.996 203.714 110.946 203.924C110.739 204.771 110.421 205.322 110.163 205.768C109.862 206.288 109.644 206.665 109.782 207.201C109.886 207.558 110.087 207.878 110.364 208.126C112.709 210.402 115.282 215.954 115.486 216.402L115.501 216.436C116.339 218.25 117.11 219.921 117.278 222.304C117.313 223.159 117.139 224.737 116.731 227.885C116.487 229.777 116.376 230.225 115.969 230.51C114.869 231.267 112.727 230.009 110.655 228.764C109.454 228.039 108.626 227.42 107.665 226.702C106.712 225.99 105.628 225.18 103.921 224.073C102.088 222.886 101.227 222.449 100.144 222.56C99.5796 222.641 98.9743 222.816 96.8034 224.387C95.5792 225.215 94.4125 226.125 93.3114 227.111C92.3849 227.908 91.5425 228.797 90.7972 229.765C90.3607 230.335 89.9766 230.958 88.6147 233.985C88.1869 234.943 87.8708 235.676 87.6178 236.262C86.9725 237.758 86.7376 238.303 86.1063 239.223C85.1169 240.666 84.3079 241.801 83.0566 241.964C82.4618 242.041 82.0511 241.869 81.6483 241.7C81.2036 241.513 80.7685 241.33 80.1058 241.492C79.5634 241.672 79.0705 241.977 78.6664 242.381C78.2622 242.785 77.958 243.278 77.7778 243.82C77.6138 244.354 77.5371 244.91 77.5509 245.467C77.3879 247.045 76.2181 248.191 74.7631 249.437C71.1896 252.492 67.5812 254.721 62.6342 257.241C60.376 258.405 59.2761 258.97 58.3623 258.405C57.4576 257.846 57.443 256.443 57.4089 253.178L57.4078 253.08C57.3526 249.14 57.3162 247.408 57.298 246.543C57.2798 245.677 57.2798 245.677 57.2973 245.2C57.4777 239.979 57.5824 237.331 58.5893 235.434C59.4056 233.884 60.4847 232.488 61.7787 231.307C62.2401 230.913 62.6307 230.642 63.0426 230.356C63.5606 229.997 64.1123 229.614 64.8807 228.933C65.8069 228.116 66.6545 227.213 67.4124 226.238C69.3355 223.865 72.8231 220.941 77.8012 216.768L77.9175 216.67C77.9175 216.67 82.1021 213.166 90.221 204.972C90.531 204.667 90.7764 204.303 90.9427 203.901C91.1267 203.453 91.2102 202.97 91.1871 202.487C91.17 201.831 91.2074 201.173 91.2448 200.515C91.2964 199.607 91.348 198.7 91.257 197.796C91.1834 197.17 91.1909 197.004 91.2122 196.53C91.2517 195.656 91.3382 193.735 91.0474 185.94C91.0396 185.727 91.0309 185.491 91.0214 185.236C90.8258 179.964 90.3121 166.125 91.1115 157.888C91.189 157.061 91.3489 156.244 91.5887 155.449L91.5989 155.419C91.8313 154.718 93.4286 149.9 98.1828 147.528C100.266 146.484 102.098 146.384 104.301 146.263L104.358 146.26C105.522 146.196 109.485 146.062 115.358 148.046C116.363 148.381 119.353 149.914 125.233 152.927C125.584 153.107 125.945 153.292 126.317 153.482C133.737 157.283 134.383 157.684 135.21 158.598C135.964 159.434 136.875 160.097 137.787 160.761C138.438 161.235 139.089 161.709 139.685 162.247C140.156 162.71 140.774 162.994 141.431 163.05C141.655 163.072 141.881 163.047 142.095 162.976C142.308 162.904 142.505 162.789 142.671 162.637C143.117 162.07 142.704 161.056 142.54 160.652C142.53 160.629 142.521 160.608 142.514 160.589C141.635 158.447 141.769 155.601 142.013 150.427C142.137 148.081 142.527 145.758 143.177 143.501C143.59 142.063 144.743 138.531 148.764 132.845C151.192 129.413 152.761 127.895 154.026 126.672C155.335 125.406 156.317 124.456 157.587 122.025C160.69 116.071 160.201 111.462 159.997 109.92C159.793 108.377 159.165 104.088 156.505 103.232C155.841 103.032 155.135 103.013 154.461 103.177C153.787 103.341 153.168 103.681 152.67 104.164C152.361 104.511 152.308 104.735 152.106 105.589C152.034 105.895 151.943 106.281 151.814 106.783C151.581 107.691 151.463 108.045 151.312 108.498C151.147 108.993 150.943 109.606 150.505 111.194C150.05 112.841 149.877 113.601 149.783 114.019C149.689 114.43 149.671 114.511 149.533 114.779C148.712 116.432 147.391 117.241 145.261 118.522C143.176 119.849 140.863 120.778 138.44 121.263C136.071 121.717 133.923 122.124 132.3 120.919C131.991 120.687 131.531 120.279 130.507 117.887C129.69 115.978 129.283 114.607 128.911 113.354C128.538 112.099 128.2 110.963 127.521 109.524C127.073 108.57 126.732 108.114 126.412 107.687C126.083 107.249 125.777 106.841 125.403 105.956C124.897 104.746 124.105 102.755 124.611 100.544C124.753 99.9095 124.926 99.5909 125.202 99.0824C125.356 98.7974 125.543 98.4527 125.775 97.9595C126.526 96.3706 126.817 95.1892 127.469 92.477C128.854 86.6861 129.541 83.7878 129.64 82.9439C129.954 80.5156 129.995 78.0597 129.762 75.6223C129.529 73.0225 128.982 70.4604 128.132 67.9923C127.494 66.4116 126.974 64.7852 126.579 63.1268C126.325 61.986 126.152 60.8288 126.061 59.6639C125.91 57.9141 125.998 56.152 126.322 54.4259C126.745 52.5172 127.329 50.6481 128.068 48.8387C128.165 48.5963 128.245 48.4038 128.309 48.2468C128.532 47.7065 128.581 47.5876 128.581 47.308C128.499 44.7596 123.468 43.0219 122.004 42.5162L121.992 42.5123C121.102 42.2079 120.659 42.1174 119.185 41.8162C118.405 41.6569 117.336 41.4384 115.759 41.0981C115.523 41.0475 115.293 40.9984 115.07 40.9506C113.029 40.5143 111.494 40.186 110.067 39.8293C108.38 39.4085 107.641 39.1562 105.443 38.4057C104.176 37.973 102.424 37.3746 99.7251 36.4828C98.3098 36.0176 97.2983 35.6896 96.4761 35.4229C94.8502 34.8956 93.9641 34.6083 92.1591 33.9744C91.4365 33.7209 91.1935 33.6322 89.9611 33.1824C89.2975 32.9402 88.347 32.5933 86.8803 32.0596C85.6106 31.6009 84.5984 31.2357 83.7795 30.9403C80.7022 29.8301 80.3532 29.7042 79.3143 29.2951C77.999 28.7771 76.1599 28.0031 72.5457 26.4782C71.5737 26.0708 65.0844 23.2598 65.1717 23.0328C67.6394 22.6196 74.2975 23.8534 74.2975 23.8534C75.1338 24.0041 75.9798 24.0743 76.8261 24.1445C77.2873 24.1828 77.7486 24.2211 78.2085 24.2724C84.0666 24.9322 90.1824 25.5774 95.9913 26.1902C96.5365 26.2477 97.0789 26.3049 97.6182 26.3618C108.248 27.4936 111.211 27.7115 112.278 27.7899C112.61 27.8143 112.758 27.8252 112.896 27.8459C113.011 27.8601 113.126 27.8815 113.239 27.9099C115.416 28.3755 123.919 28.3755 123.919 28.3755C124.463 28.3763 124.958 28.3794 125.412 28.3824C128.589 28.4027 129.698 28.4098 130.798 27.4676C131.139 27.1673 131.271 26.9566 131.417 26.7215C131.583 26.4553 131.768 26.1578 132.3 25.6634C133.104 24.9148 133.721 24.6288 135.662 23.729C136.135 23.5095 136.687 23.2536 137.34 22.9455C138.911 22.2005 139.708 21.8222 140.203 21.5312C141.067 21.0223 141.586 20.632 142.146 20.2107C142.578 19.8853 143.036 19.5414 143.695 19.1101C144.708 18.4467 145.77 17.8629 146.873 17.3641C148.749 16.4954 149.738 16.2497 151.128 15.9044C152.308 15.6111 153.778 15.2461 156.325 14.3668C158.593 13.5842 159.698 13.0406 160.802 12.4977C161.964 11.9263 163.124 11.3557 165.637 10.5081C168.852 9.4439 172.167 8.70876 175.531 8.314C183.918 7.33679 190.324 8.94659 198.029 10.8832L198.042 10.8864C201.231 11.6003 204.314 12.7231 207.215 14.2271C209.342 15.3497 211.342 16.698 213.18 18.2487C214.223 19.141 214.648 19.6253 215.453 20.5441C216.045 21.2194 216.843 22.1295 218.244 23.609C221.549 27.101 223.243 28.8761 225.326 30.1099C226.861 30.9731 228.443 31.7503 230.064 32.4379C230.743 32.7333 231.018 32.837 231.474 33.0091C231.863 33.1558 232.384 33.3521 233.399 33.759C234.949 34.3865 235.984 34.8367 236.769 35.178C238.117 35.7642 238.727 36.0292 239.941 36.3198L242.763 36.9426C242.763 36.9426 241.04 38.124 240.15 38.6246C237.874 39.8817 234.01 40.033 231.228 39.5267L231.175 39.5169C230.799 39.4471 230.016 39.3018 229.878 39.579C229.732 39.87 230.372 40.487 230.762 40.842C230.869 40.9415 230.972 41.0384 231.072 41.1328C232.818 42.7699 233.738 43.6324 234.668 44.1827C236.271 45.1501 236.897 45.769 237.671 46.5336C238.485 47.3375 239.462 48.3024 241.908 50.0027C244.532 51.836 245.842 52.7439 247.588 53.4947C247.933 53.6457 248.27 53.7816 248.577 53.9058C249.431 54.2506 250.061 54.5048 250.027 54.7401C249.964 55.1484 247.882 55.1377 246.651 55.1314C246.513 55.1307 246.385 55.1301 246.273 55.1301C243.916 55.173 241.565 54.885 239.289 54.2746C237.773 53.8454 236.544 53.3185 235.676 52.9463C234.836 52.5865 234.334 52.3712 234.237 52.5285C234.12 52.7219 234.719 53.2936 235.311 53.8582C235.396 53.9393 235.481 54.0203 235.564 54.0999C237.184 55.6549 238.011 56.8236 238.83 57.9798C239.258 58.585 239.684 59.1866 240.22 59.8385C243.039 63.2364 246.635 65.343 250.366 67.5294C250.54 67.6311 250.714 67.733 250.888 67.8352C251.706 68.2967 252.523 68.7302 253.279 69.1309C255.364 70.2358 256.977 71.0909 256.819 71.5949C256.737 71.8568 256.213 71.9091 255.922 71.9382L255.828 71.9473C251.392 72.372 249.156 72.586 246.267 72.0081C245.502 71.8583 244.721 71.7782 243.941 71.698C242.781 71.5789 241.621 71.4598 240.511 71.1118C240.464 71.1042 240.401 71.088 240.328 71.0693C240.065 71.0019 239.682 70.9036 239.545 71.0769C239.242 71.4436 240.307 72.7705 240.825 73.4049L240.875 73.466C245.387 79.0241 247.647 81.8072 249.34 82.9206C252.89 85.2486 254.677 86.4126 256.324 86.9946C256.357 87.006 256.392 87.0179 256.428 87.0303C256.986 87.22 257.878 87.5237 257.878 87.9607C257.895 88.7173 255.323 89.3517 254.252 89.6136C252.227 90.1199 248.863 90.9464 246.017 90.3062C245.945 90.2975 245.848 90.2739 245.739 90.2477C245.413 90.1688 244.987 90.0659 244.882 90.2712C244.742 90.5448 245.731 91.3072 246.086 91.5807C247.524 92.709 248.267 93.6593 249.011 94.6111C249.599 95.363 250.188 96.116 251.121 96.9584C252.452 98.1163 254.129 98.8883 257.469 100.426L257.523 100.45C262.639 102.808 265.199 103.983 265.886 104.053C265.979 104.059 266.264 104.094 266.317 104.245C266.48 104.699 264.46 106.055 262.522 106.742C260.002 107.592 257.288 107.683 254.717 107.004C254.272 106.864 253.85 106.709 253.465 106.568C252.505 106.215 251.781 105.95 251.511 106.224C251.132 106.608 251.551 107.592 251.714 107.97C254.883 115.22 258.529 122.252 262.627 129.021C265.578 133.642 267.068 135.993 268.045 137.809C268.423 138.515 268.716 139.089 268.968 139.58C269.612 140.839 269.975 141.55 270.746 142.517C272.26 144.442 274.02 145.388 276.373 146.652C277.094 147.039 277.871 147.457 278.713 147.942C282.649 150.166 286.759 152.064 291 153.617V0ZM113.915 181.1C114.516 180.8 115.307 180.406 116.382 179.957C117.872 179.335 119.003 178.99 119.817 178.742C120.935 178.401 121.453 178.243 121.48 177.798C121.554 177.307 120.992 177.002 119.885 176.4C118.893 175.861 117.464 175.085 115.66 173.724C115.25 173.414 114.832 173.083 114.432 172.765C113.246 171.826 112.214 171.007 111.988 171.216C111.954 171.267 111.969 171.358 111.98 171.422C111.984 171.445 111.988 171.465 111.988 171.478C112.161 172.226 112.078 173 111.996 173.776C111.939 174.303 111.883 174.831 111.906 175.354C111.986 176.978 111.825 178.269 111.702 179.255C111.548 180.489 111.454 181.247 111.965 181.587C112.381 181.866 112.854 181.63 113.915 181.1Z" fill="white"/>
</svg>
